<svg width="45" height="90" viewBox="0 0 45 90" fill="none" xmlns="http://www.w3.org/2000/svg">
<g id="Anterior Vena Cava">
<path d="M17.5 18.5L17 10.5L16.5 10V9.5L17 7.5L19 5.5L21.5 4L25 2.5L28 1.5L31 1H32.5H34.5H37.5H38.5L40.5 1.5L41 2L39 11.5L38 25.5L38.5 40L40.5 50L43 58L44 60.5H43.5L42 59L40 58L38 57L36.5 56.5H33.5L30.5 57L28 58L24 60.5L20.5 64L17.5 68L12.5 74L6.5 82L3.5 85.5L1.6203 88.1316L1.5 88.5L1 89L1.6203 88.1316L9.5 64L12 55.5L16.5 31.5L17.5 25.5V18.5Z" fill="#0060B6"/>
<path d="M17 10.5L17.5 18.5V25.5L16.5 31.5L12 55.5L9.5 64L1.5 88.5L1 89L3.5 85.5L6.5 82L12.5 74L17.5 68L20.5 64L24 60.5L28 58L30.5 57L33.5 56.5H36.5L38 57L40 58L42 59L43.5 60.5H44L43 58L40.5 50L38.5 40L38 25.5L39 11.5L41 2L40.5 1.5L38.5 1H37.5H34.5H32.5H31L28 1.5L25 2.5L21.5 4L19 5.5L17 7.5L16.5 9.5V10L17 10.5Z" stroke="black" stroke-opacity="0.01"/>
</g>
</svg>
