<svg width="164" height="93" viewBox="0 0 164 93" fill="none" xmlns="http://www.w3.org/2000/svg">
<g id="Antrioventicular Valve">
<path d="M5.5 69L0.5 72L4 77L4.5 76L6 74L10 72L12 71.5H14.5L17.5 72L19.5 72.5L21 73L22.5 74L23.5 75L25 76L26 77L26.5 78L27.5 79L28 80L29 83L30 86.5L30.5 88L31 89L31.5 90.5L32 91L32.5 92V92.5H34L35.5 91V86L35 83L33.5 79L32 76.5L29 72.5L26 70.5L21.5 68.5L18 67.5H13L9 68L5.5 69Z" fill="#E4BC96"/>
<path d="M52 7.5V2.5L60.5 3L59 8.5L56.5 15.5L53.5 23.5L51.5 29L49.5 36L48.5 40V48L49.5 53L51 58L55 63.5L58.5 67L61 69L62 70.5V72L61.5 73L58.5 73.5L53.5 71L48.5 65.5L44.5 58.5L43 53L42.5 43.5L45 28.5L48.5 18.5L50.5 11.5L52 7.5Z" fill="#E4BC96"/>
<path d="M126 5.5L124 0.5H129.5V5.5L131.5 16V22L129.5 31.5L126 36.5L121 41H117L118.5 36.5L121 34L124 29L126 25V18L124 14.5L126 11V5.5Z" fill="#E4BC96"/>
<path d="M156.5 26.5L161 23.5L163.7 19L159.5 29L157.5 29.5L156 31L153.5 34L152.5 37L151.5 39.5L150.5 43.5L151 47.5L150.5 49.5V51.5L151 53V54L150.5 55L150 55.5L149 56L148 55.5L147.5 53V39.5L149.5 34L152 29L156.5 26.5Z" fill="#E4BC96"/>
</g>
</svg>
