<svg width="118" height="167" viewBox="0 0 118 167" fill="none" xmlns="http://www.w3.org/2000/svg">
<path id="Aorta" d="M48.2283 122.515C40.811 133.041 31.6721 143.298 30.0586 156.824C29.4696 161.765 29.2795 167.586 23.3322 165.469C19.7626 164.199 15.3793 159.873 13.057 156.748C8.68655 150.866 5.94153 143.74 4.17158 136.528C0.78808 122.736 0.455483 107.378 3.57368 93.486C8.02826 73.6395 17.4175 53.3582 31.4286 39.1243C35.8753 34.6074 39.631 32.1373 38.9578 25.0214C38.3985 19.11 35.3932 13.8658 32.0859 9.16832C34.6003 6.10283 39.6419 2.20131 43.3501 1.07286C47.3354 -0.140029 46.0218 0.438443 47.3532 4.07184C51.2208 14.6216 55.3942 23.1741 64.5736 29.4381C62.77 27.9982 61.4525 26.134 60.2844 24.2962C67.287 24.8145 73.0581 20.6913 77.3464 15.2571C79.0629 13.0793 81.4505 10.435 82.8007 7.98498C83.6283 6.4818 83.7481 4.30936 84.8459 3.10491C87.0791 0.653787 97.2999 0.169263 97.5761 4.80549C97.6929 6.76998 91.6485 12.0712 90.8843 14.4896C89.251 19.6642 90.3191 26.645 90.327 32.0687C89.8716 25.3444 91.7 15.1673 96.402 10.4952C103.033 3.904 106.725 11.9657 111.975 16.8869C109.188 14.2743 105.563 21.7174 105.027 23.3462C101.915 32.8245 107.343 37.675 110.775 45.4802C117.28 60.2777 118.676 79.723 115.536 95.5687C115.967 93.3984 107.385 95.7302 106.627 95.8273C103.243 96.2612 99.0431 95.1349 95.7992 94.1204C91.8049 92.8706 86.7267 92.0778 83.265 89.6035C80.1132 87.3498 78.4006 83.4778 75.2745 81.1502C65.3279 73.7398 56.9553 83.7269 53.6738 93.4734C51.8415 98.9161 52.9828 104.261 54.3172 109.309C55.1349 112.399 55.7051 111.884 54.0697 115.025C52.6829 117.685 49.9884 120.019 48.2283 122.515Z" fill="url(#paint0_radial_2_39)" stroke="#8F0000"/>
<defs>
<radialGradient id="paint0_radial_2_39" cx="0" cy="0" r="1" gradientUnits="userSpaceOnUse" gradientTransform="translate(-2.72697 76.0716) scale(90.8561 96.8864)">
<stop stop-color="#FFBF00"/>
<stop offset="1" stop-color="#BF0000"/>
</radialGradient>
</defs>
</svg>
