<svg width="78" height="270" viewBox="0 0 78 270" fill="none" xmlns="http://www.w3.org/2000/svg">
<path id="Ignore" d="M3 135.5C2.16848 140.847 21.1962 163.972 18.274 168.535C15.8685 172.294 0.982182 138.804 1 144.039C1.03168 153.092 4.84678 158.496 8.18276 166.425C11.2218 173.65 9.40331 183.293 9.67949 191.211C10.3813 211.421 9.15682 231.753 9.17266 251.978C9.17464 254.877 8.79551 257.479 10.0042 259.941C12.1632 264.338 19.9042 267.626 24.0975 268.433C33.7134 270.28 48.172 268.353 47.9007 255.504C47.8027 250.875 46.309 246.034 45.909 241.388C45.8081 240.221 44.4786 224.955 47.2335 225.23C40.4537 224.55 34.1707 212.923 31.5158 207.355C27.2464 198.407 26.891 188.929 21.4386 180.503C16.1287 172.298 17.4206 163.436 24.5409 156.991C29.5845 152.428 36.4723 152.204 42.4553 154.715C48.2927 157.167 49.9667 162.498 51.7307 168.535C52.4731 171.077 52.0633 174.3 54.7004 172.358C57.582 170.236 57.1841 162.825 57.1771 159.589C57.1662 154.547 58.2621 150.254 63.6135 149.522C68.0562 148.914 72.5207 152.274 77.3316 151.8C74.7103 152.059 69.7034 146.015 68.3462 144.039C65.8061 140.344 64.9152 135.49 64.0877 131.06C60.7636 113.267 81.8347 94.3843 68.1809 77.7374C63.6056 72.1606 62.2504 68.7373 61.1556 61.9033C60.0578 55.0566 57.9671 48.2754 57.2078 41.3485C56.6208 35.9976 56.3179 30.2963 56.6614 24.8314C56.8475 21.8704 57.6523 18.8113 58.3076 15.8693C58.8669 13.358 60.6883 9.35833 60.7665 7.01382C61.0764 -2.26708 37.0058 1.13198 32.4107 6.98954C30.3527 9.61167 31.1406 11.4199 31.4574 14.3661C32.0949 20.2997 31.6752 25.5862 30.5774 31.4522C28.4273 42.9488 26.7138 54.038 23.1422 65.0881C17.9452 81.1755 5.61632 118.683 3 135.5Z" fill="url(#paint0_radial_2_33)" stroke="#003CFF"/>
<defs>
<radialGradient id="paint0_radial_2_33" cx="0" cy="0" r="1" gradientUnits="userSpaceOnUse" gradientTransform="translate(48.4268 115.217) scale(50.1226 53.4493)">
<stop stop-color="#95EDFC"/>
<stop offset="1" stop-color="#0060B6"/>
</radialGradient>
</defs>
</svg>
