<svg width="233" height="247" viewBox="0 0 233 247" fill="none" xmlns="http://www.w3.org/2000/svg">
<path id="Ignore 1" d="M116.945 1.23931C121.125 1.23931 125.442 2.17986 129.101 4.40191C131.377 5.78581 132.986 8.12082 134.25 10.5128C136.372 14.5284 137.274 19.609 137.268 24.1755C137.265 26.1105 137.407 28.0538 137.214 29.9835C137.142 30.7108 136.771 31.6598 136.988 32.3723C137.204 33.0807 138.129 33.7056 138.587 34.2249C139.656 35.4368 140.718 37.1975 142.098 38.004C140.612 37.1363 143.396 31.1584 143.903 30.1239C145.069 27.7456 147.71 25.3652 149.934 24.2083C153.257 22.4824 157.092 22.4063 160.62 23.1104C162.883 23.5633 164.651 24.5999 166.716 25.6238C168.494 26.5053 169.798 28.1351 171.381 29.2974C174.031 31.245 175.951 34.7749 178.016 37.3738C180.595 40.6188 183.77 43.622 185.564 47.4834C186.431 49.3486 187.707 50.856 188.719 52.6632C189.771 54.5454 190.626 56.5637 191.243 58.6549C191.986 61.1683 191.818 64.0955 191.582 66.6954C191.361 69.1275 191.058 71.5882 191.736 73.9738C192.029 75.0062 192.437 76.1009 193.098 76.9316C193.815 77.8331 194.656 77.8996 195.558 78.3926C201.025 81.3779 201.291 86.6274 204.847 91.4642C208.469 96.3918 213.196 100.299 216.679 105.345C223.165 114.741 226.492 123.78 229.438 134.905C234.794 155.132 232.091 177.64 224.756 196.906C221.019 206.721 215.88 215.416 209.541 223.53C202.679 232.311 196.918 235.651 186.475 239.01C181.203 240.705 176.682 243.459 171.131 244.476C165.714 245.467 160.19 245.68 154.703 245.739C145.14 245.845 135.759 245.362 126.355 243.733C110.819 241.041 96.1531 236.064 81.0521 231.491C64.6622 226.526 50.0106 215.546 39.8502 200.891C34.9472 193.819 31.1094 185.869 26.9914 178.288C21.6271 168.414 15.355 159.151 16.0262 147.139C16.1747 144.481 16.3558 141.827 16.2182 139.158C16.0608 136.084 15.0887 131.962 12.7644 129.936C1.76857 125.536 0.930125 109.962 0.880629 108.696C0.407455 101.917 3.02278 90.2598 4.85213 86.5546C5.12039 86.0099 5.65494 85.4705 5.84005 84.9015C9.81254 73.6793 14.2839 69.041 15.5382 65.5976C17.3606 59.0328 25.4907 50.1023 26.7369 48.216C27.5318 47.0126 28.398 46.0625 29.2483 44.914C31.0292 42.5083 32.91 39.8355 34.8591 37.624C37.1616 35.0114 39.4424 32.1855 42.4784 30.5314C45.2076 29.0451 48.5584 28.2059 51.6687 28.5785C54.4434 28.9121 57.2815 30.3107 59.3345 32.2731C62.0875 34.9037 64.0772 38.2806 66.6024 41.1371C67.6953 42.3732 68.9237 43.3982 69.9414 44.6681C70.9313 45.9042 72.3716 46.394 73.5001 47.4295C74.3583 48.2181 74.8167 48.843 75.9837 48.8419C79.1811 48.8409 80.1691 45.0101 80.7511 42.3172C81.0907 40.7486 81.3035 39.142 81.8687 37.6662C82.6102 35.7313 83.1249 33.6792 83.7793 31.7073C84.4554 29.6742 85.4799 27.5947 86.6757 25.8497C87.729 24.3149 88.4437 22.5531 89.4375 20.9433C91.0056 18.4035 92.9903 16.2194 95.0661 14.1494C96.0214 13.1972 96.5916 12.0498 97.4538 10.9942C98.4417 9.78445 99.5643 8.7109 100.628 7.58139C102.379 5.72353 104.101 3.97967 106.311 2.81217C107.754 2.05002 109.344 1.65522 110.979 1.45149C112.96 1.20765 115.009 1.24037 116.945 1.23931ZM64.5969 46.2451C63.7366 44.9816 63.2704 43.3844 62.1518 42.3795C61.1946 41.5213 57.03 37.3527 55.9857 36.1145C55.1403 35.1116 54.778 34.3136 53.3793 34.1236C51.8004 33.9093 50.2205 34.4825 48.7039 34.8657C46.1114 35.5202 43.602 36.5167 41.2569 37.8668C38.0189 39.7299 35.8362 43.5713 33.3238 46.3686C31.8369 48.0217 30.0056 49.261 28.7633 51.1622C27.7734 52.6738 26.8191 54.1844 25.8916 55.7572C23.5554 59.7179 21.0767 63.6299 18.102 67.0828C16.2489 75.1382 7.27838 93.6725 10.0966 87.2523C11.2459 84.6355 8.86421 93.2545 8.59991 96.0814C4.49081 110.362 10.4847 121.705 14.1612 125.126C18.4732 129.137 20.9015 125.815 25.0304 123.686C31.6835 120.255 41.5806 120.787 47.82 125.029C50.9609 127.165 53.6515 130.811 55.0957 134.447C55.9461 136.589 58.7406 146.742 54.2266 146.566C52.2399 146.489 50.0948 135.187 48.9158 133.305C44.6592 126.51 35.4808 123.525 28.5683 127.222C24.1711 129.573 23.6653 136.79 23.002 141.483C22.6259 144.142 24.2988 145.65 26.2341 147.075C31.6904 151.089 34.4008 162.452 35.9134 169.065C37.4537 175.795 39.7037 179.116 44.2306 183.872C56.0253 196.263 61.9212 210.739 79.9404 213.674C83.8951 214.317 88.6486 214.083 92.3479 216.039C94.9444 217.412 95.7205 219.558 98.2556 220.403C101.061 221.339 103.397 219.645 106.097 221.465C109.258 223.596 109.067 226.065 113.622 226.207C118.298 226.354 121.909 225.669 126.623 227.135C130.356 228.298 134.051 230.005 137.9 230.447C143.509 231.089 151.421 230.587 152.623 223.148C153.679 216.609 148.03 208.099 145.257 202.655C141.27 194.826 136.866 187.241 133.157 179.253C122.374 156.026 103.567 131.47 107.812 104.258C108.906 97.2436 112.073 90.9058 115 84.6059C116.472 81.4391 117.908 78.2417 119.022 74.907C119.506 73.4576 119.685 71.9608 120.153 70.5357C120.713 68.8277 121.25 67.1926 121.191 65.3495C121.114 62.9723 119.974 61.0057 117.742 60.8801C113.956 60.6679 110.398 60.8051 107.813 57.4599C106.634 55.9346 105.957 53.4708 105.957 51.5126C105.957 50.5077 106.328 48.2265 107.472 49.1048C108.409 49.8258 108.281 51.8092 108.672 52.868C109.21 54.3248 110.436 55.7952 111.515 56.7896C113.063 58.2168 115.9 58.2031 117.724 57.5739C119.062 57.1126 120.042 56.4011 121.016 55.3149C121.45 54.8304 122.052 54.3311 122.422 53.8012C123.558 52.1724 124.361 49.2906 124.733 47.3377C124.966 46.1069 124.877 44.9193 125.343 43.736C126.043 41.9583 127.068 40.2947 127.848 38.5508C129.442 34.9881 130.788 31.2925 131.817 27.4997C132.451 25.1636 133.188 22.6639 133.03 20.2128C132.866 17.6624 132.657 14.3774 131.675 12.0329C131.181 10.8517 130.506 10.0431 129.467 9.41288C128.475 8.81118 127.759 8.00469 126.757 7.43783C124.852 6.36111 122.971 5.56414 120.806 5.35513C117.65 5.05006 114.768 4.70487 111.745 5.74887C108.875 6.74008 106.004 7.92764 103.648 9.89529C101.662 11.5547 100.532 14.1114 98.8842 16.136C97.0925 18.338 95.1424 20.5749 93.1071 22.5066C91.2184 24.298 90.6749 27.335 90.0562 29.8526C88.7248 35.2637 88.904 41.1677 91.5658 46.1016C93.3012 49.3191 95.9393 49.716 99.1099 49.0879C99.9622 48.9201 102.756 47.229 103.251 48.5569C103.694 49.7466 100.968 51.4862 100.227 51.8641C98.6773 52.6537 96.8965 53.2786 95.1948 53.4908C93.116 53.7505 90.4344 52.6041 89.0505 50.8919C87.6349 49.1428 87.0499 46.6632 85.5433 44.9013C84.5207 43.7053 83.6704 43.8267 82.9636 45.2106C80.9778 49.0911 81.7678 53.5974 80.8382 57.7154C76.7678 75.7483 63.8277 90.4286 71.0332 110.226C72.5804 114.475 75.3017 117.72 78.4813 120.65C80.1988 122.233 82.5429 123.189 82.8606 125.822C76.2085 131.133 66.3658 114.753 65.075 108.984C62.8804 99.1807 63.8138 89.7404 66.8281 80.184C67.6171 77.6832 68.2427 75.116 69.2296 72.6913C70.168 70.3848 71.1392 68.2218 71.8341 65.7992C72.726 62.6926 74.3217 57.6309 72.2993 54.6826C71.4708 53.4739 70.1542 52.5545 69.0109 51.5918C68.7664 51.3881 65.7481 47.9383 64.5969 46.2451ZM125.328 72.1265C121.626 78.2184 120.43 86.1957 120.501 93.3442C120.565 99.8922 119.309 106.249 120.174 112.858C121.965 126.534 128.275 139.304 134.412 151.266C143.071 168.145 151.575 185.235 160.535 201.966C163.888 208.23 167.013 216.362 173.596 219.481C178.706 221.902 185.285 218.208 190.229 216.606C196.085 214.71 199.518 210.357 200.265 204.019C200.719 200.167 199.77 194.85 205.475 197.158C208.355 191.859 207.252 187.173 212.095 183.606C214.486 181.845 218.462 179.936 218.004 176.063C217.619 172.799 213.693 172.267 212.926 169.226C212.293 166.714 213.988 164.678 214.605 162.323C215.597 158.532 214.924 159.476 213.699 156.543C211.565 151.431 212.757 146.498 212.226 140.736C210.972 127.116 206.587 115.632 196.38 106.917C193.816 104.728 190.752 103.316 188.364 101.008C183.972 96.7644 188.234 83.7234 182.671 82.4694C179.801 81.8233 176.417 84.7199 174.996 87.1425C173.851 89.0975 173.044 91.5381 172.397 93.7337C171.951 95.2475 171.722 96.7908 171.569 98.3626C171.382 100.27 171.677 101.917 171.565 103.765C171.485 105.091 172.179 109.994 170.43 110.005C168.48 110.018 168.302 106.633 168.053 105.182C167.647 102.823 167.601 100.398 167.796 98.01C168.001 95.5008 168.462 93.0128 169.176 90.6102C169.735 88.7365 170.138 86.8702 171.424 85.4451C174.237 82.3311 177.394 79.6171 180.942 77.5112C184.063 75.6607 185.083 72.9911 186.106 69.5888C186.513 68.2366 186.813 67.0723 186.971 65.6588C187.25 63.1803 187.4 60.9424 186.785 58.5018C186.263 56.4254 184.812 54.9391 183.619 53.2892C182.297 51.4598 182.122 49.4193 181.087 47.4718C178.741 43.0635 173.554 36.1588 169.527 33.3857C167.833 32.2203 165.851 32.0377 164.606 30.3962C163.557 29.0123 162.081 28.2132 160.451 27.9082C157.313 27.3202 153.572 28.3684 151.214 30.6897C149.938 31.9448 149.135 33.4174 148.365 35.0536C147.756 36.3478 146.851 37.6177 146.407 38.9868C145.437 41.9731 145.821 46.4457 147.179 49.279C148.877 52.8205 150.199 56.3916 150.256 60.4863C150.355 67.5019 153.559 76.0059 150.961 82.6974C149.457 86.5672 147.084 90.7569 143.933 93.3474C139.48 97.0104 135.28 94.7112 140.488 90.0645C147.285 83.9989 148.469 77.4035 146.684 68.6641C146.342 66.9878 146.594 64.9663 146.693 63.2563C146.774 61.8702 146.49 52.3349 143.696 53.4834C142.89 53.8149 142.555 55.1291 142.122 55.8279C141.584 56.7009 140.844 57.2878 140.023 57.9022C138.298 59.1943 136.389 60.0831 134.264 60.2214C133.46 60.2731 129.43 59.5891 129.45 58.467C129.466 57.5243 132.023 57.5064 132.566 57.4525C134.015 57.3121 135.249 57.3259 136.498 56.3948C138.139 55.1703 138.831 53.1784 138.994 51.1463C139.246 48.0196 139.905 44.7979 139.12 41.743C138.718 40.1733 136.718 36.2285 134.781 37.3918C133.523 38.1465 133.163 41.0653 132.414 42.2666C131.482 43.7623 130.692 45.3436 129.835 46.9007C129.242 47.9774 128.314 48.919 127.852 50.0622C127.22 51.6235 127.388 53.5869 127.081 55.2379C126.819 56.6439 126.606 58.0278 126.279 59.4233C125.942 60.8674 125.022 63.1486 125.247 64.6169C125.511 66.3407 127.059 64.1577 127.407 63.6257C127.63 63.2858 129.697 59.2154 129.034 59.0169C135.507 60.9497 127.039 69.308 125.328 72.1265Z" fill="#E4BC96" stroke="white"/>
</svg>
