<svg width="105" height="234" viewBox="0 0 105 234" fill="none" xmlns="http://www.w3.org/2000/svg">
<g id="Ignore 2">
<path d="M5.15393 77.8129C8.19194 63.8694 11.721 49.1659 20.8439 38.2129C26.0102 32.0112 27.7584 27.1533 30.4222 19.3291C32.3179 13.7608 35.2223 10.0102 39.6779 6.39793C41.9002 4.59706 49.3591 -2.01843 50.5025 2.43096C51.9537 8.08057 45.8638 15.17 44.1869 20.2918C41.9734 27.0498 47.4011 29.4957 52.4842 32.0133C51.9913 32.6329 51.916 33.3972 51.2479 34.0147C52.3358 33.0098 58.3217 31.3926 60.0343 30.7286C63.298 29.464 65.9163 29.7944 68.8929 31.8814C71.4528 33.6748 76.0084 39.1165 75.0957 42.7488C74.1226 46.6145 57.6714 53.2162 66.5409 59.2216C70.3095 61.7719 73.8434 57.4883 77.318 56.5562C81.4825 55.4383 83.7534 58.129 85.1135 62.8888C86.7924 68.7611 73.8405 72.7505 69.7047 75C64.7551 77.6939 68.8791 78.6627 69.7047 85.5938C70.3956 91.3986 74.6473 96.7009 76.3311 102.01C78.1208 107.651 81.5409 111.636 85.1818 116.048C91.0312 123.135 97.6061 128.626 100.683 137.779C106.293 154.469 105.909 172.14 101.963 189.264C98.2377 205.426 86.3697 220.707 73.3406 229.533C59.9966 238.572 51.7893 228.283 42.4635 218.785C31.5369 207.657 27.8208 188.492 21.7715 174.254C18.288 166.058 14.2135 158.404 11.0062 150.041C9.01357 144.844 6.67838 139.703 5.4994 134.213C3.70371 125.85 1.60907 117.35 0.858723 108.786C-0.00942416 98.886 3.06325 87.4105 5.15393 77.8129Z" fill="url(#paint0_radial_7_36)"/>
<path d="M46.4241 51.7384C49.377 53.7873 50.3421 56.6934 52.1823 59.6512C52.2378 59.742 54.0147 54.7733 54.0721 54.1747C54.2621 52.1965 54.083 49.7813 52.9703 48.3647C51.338 46.2851 43.1465 44.5085 40.8153 47.8601C42.2002 49.8583 44.5512 50.4368 46.4241 51.7384Z" fill="url(#paint1_linear_7_36)"/>
<path d="M58.6731 70.4691C60.6005 73.6137 60.3847 76.6877 60.9519 80.186C60.9687 80.2915 64.473 76.5103 64.7521 75.9857C65.6747 74.2566 66.4231 71.9691 65.94 70.1946C65.2313 67.5883 58.4079 62.4423 55.0056 64.5081C55.5173 66.9328 57.4506 68.4729 58.6731 70.4691Z" fill="url(#paint2_linear_7_36)"/>
</g>
<defs>
<radialGradient id="paint0_radial_7_36" cx="0" cy="0" r="1" gradientUnits="userSpaceOnUse" gradientTransform="translate(34.5073 171.521) scale(100.594 107.27)">
<stop stop-color="#FFBF00"/>
<stop offset="1" stop-color="#BF0000"/>
</radialGradient>
<linearGradient id="paint1_linear_7_36" x1="52.6357" y1="116.582" x2="138.869" y2="83.187" gradientUnits="userSpaceOnUse">
<stop stop-color="#BF0000"/>
<stop offset="1" stop-color="#0A0A9E"/>
</linearGradient>
<linearGradient id="paint2_linear_7_36" x1="59.2148" y1="71.8822" x2="68.2902" y2="69.0962" gradientUnits="userSpaceOnUse">
<stop stop-color="#BF0000"/>
<stop offset="1" stop-color="#0A0A9E"/>
</linearGradient>
</defs>
</svg>
