<svg width="47" height="119" viewBox="0 0 47 119" fill="none" xmlns="http://www.w3.org/2000/svg">
<path id="Posterior Vena Cava" d="M0.5 3.5V0.5L2.5 3.5L4.5 5L7 8L9.5 9L11 10L13 15.5V18V21.5V24.5V27V29V31L13.5 34V36L14.5 39L15.5 42L22.5 55.5L26.5 63L34 76.5L36.5 80.5L45 91V92V94L45.5 95.5L46 97L46.5 98.5V101.5V104L47 106L46.5 108V109.5L46 111.5L45 113L43.5 114.5L42.5 115.5L41 116.5L39 117.5L37.5 118L35.5 118.5L33.5 119H31.5H25.5H24.5L23 118.5H21.5L20.5 118L19 117.5L18 117L16.5 116.5L15.5 116L14.5 115.5L13.5 114.5L12 113.5L11 113L10.5 112L9.5 111.5L9 110.5V109.5L8 108V101L9 44.5L8.5 42.5V40V39L9 37.5V35V33V31V29V27V25V23.5L8.5 20.5L8 18.5L6 14.5C5.5 13.5 4.1 11.2 2.5 10C0.9 8.8 1.83333 8.16667 2.5 8V5H0.5V3.5Z" fill="#0060B6"/>
</svg>

