<svg width="146" height="87" viewBox="0 0 146 87" fill="none" xmlns="http://www.w3.org/2000/svg">
<g id="Pulmonary Artery">
<path d="M17 3.5C11.9475 0.71003 11.8719 -0.531615 6.59665 1.80128C1.81343 3.91883 -0.376238 11.5899 1.29967 16.6811C2.54299 20.4581 3.71405 19.5038 7.68258 19.85C10.0712 20.058 8.48059 20.1636 10.5 19.6337C13.8607 18.7533 16.3991 7.45325 17 3.5Z" fill="#0060B6"/>
<path d="M57.9806 32.7623C58.4944 30.7767 59.2893 28.7974 60.3336 26.6967C61.2731 24.804 62.3867 23.038 63.8072 21.5158C65.0773 20.1551 66.7413 18.2909 68.5875 17.9362C70.7316 17.5256 73.9211 18.9032 75.9524 19.6337C80.4228 21.2403 84.6061 24.2097 89.4854 24.0883C93.8241 23.9806 98.0926 25.317 102.354 26.0634C108.276 27.1 114.51 27.0092 120.52 26.6197C124.654 26.3515 128.721 25.3878 132.866 25.2263C134.859 25.1482 136.892 25.2115 138.833 25.7414C140.487 26.1932 142.032 28.0796 143.109 29.5279C147.515 35.4583 146.408 45.0822 140.354 49.4472C137.507 51.4982 135.038 50.7213 131.768 50.9768C126.664 51.3758 120.701 52.424 115.718 53.7604C106.871 56.1313 101.591 61.0483 97.7748 69.357C94.92 75.5756 90.5089 82.0359 86.0108 86.9044C85.1912 77.0788 88.248 63.2355 76.8898 59.0806C72.2194 57.3727 66.9244 58.4051 62.2145 59.3762C57.8114 60.2819 52.9252 61.2964 49.514 64.6458C49.8327 60.6651 54.1656 56.3846 56.2681 53.1418C58.5251 49.6594 58.9567 48.0971 58.0886 43.9981C57.2877 40.2117 56.9996 36.5582 57.9806 32.7623Z" fill="#0060B6"/>
</g>
</svg>
