<svg width="204" height="52" viewBox="0 0 204 52" fill="none" xmlns="http://www.w3.org/2000/svg">
<g id="Pulmonary Veins">
<path d="M45.0405 21.142C45.1147 17.2932 40.7948 15.4765 37.9577 14.5634C33.8288 13.2323 30.4087 15.1736 26.2273 14.6046C23.3249 14.2109 20.4998 13.1553 17.8042 11.974C13.6565 10.1573 11.7203 11.669 9.44548 15.8946C6.77571 20.8538 12.8349 24.5653 16.6263 26.2163C19.0248 27.2603 20.962 27.7438 23.5576 27.7416C25.0147 27.7416 26.5253 27.8926 27.9567 27.5622C29.3792 27.2339 30.6997 26.0907 32.1589 26.1931C29.8355 29.2089 26.3263 28.773 23.0864 29.5678C19.7712 30.3807 16.4797 31.3518 13.2972 32.6397C10.18 33.9011 7.5706 35.9574 4.51971 37.3012C3.40409 37.7921 1.71432 38.1721 0.945166 39.2932C-0.0239516 40.7077 0.273015 43.5367 0.472976 45.1666C0.74223 47.3559 1.65492 50.719 4.00496 51.2922C4.98793 51.5329 5.00081 51.4094 5.92241 50.9545C8.46449 49.6993 10.4799 47.1712 13.218 46.4259C15.8007 45.7229 18.6991 45.0631 21.3521 44.606C25.1206 43.9589 30.3562 45.9108 32.9508 42.4969C35.5146 39.1221 38.1092 34.9261 40.2098 31.1681C41.6699 28.5545 44.9791 24.351 45.0405 21.142Z" fill="#BF0000"/>
<path d="M193.5 27L189.5 29.5L190.5 31L192.5 36L193.5 43L198.5 40.5L200.5 38.5L202.5 36L203.5 33L202 29.5L200.5 27L197.5 26L193.5 27Z" fill="#BF0000"/>
</g>
</svg>
