<svg width="133" height="234" viewBox="0 0 133 234" fill="none" xmlns="http://www.w3.org/2000/svg">
<g id="Right Ventricle">
<path d="M113.226 233.38C118.555 234.065 123.788 233.438 128.236 229.199C137.94 219.95 129.197 205.351 126.049 195.128C121.851 181.501 112.285 171.561 103.819 160.741C96.7267 151.675 91.1515 142.942 89.7201 130.953C88.3441 119.429 89.6904 107.517 92.1127 96.2524C92.8264 92.9326 102.684 59.398 98.6203 58.3192C98.0284 53.912 102.605 48.3437 104.005 44.1582C105.422 39.9252 107.8 36.2507 109.325 32.0187C112.317 23.7206 113.102 14.0544 108.569 6.55432C103.133 -2.43735 88.4105 -0.0284481 80.8139 4.60039C67.7551 12.5576 64.0538 26.1591 59.3231 40.0266C53.4807 57.1485 48.9321 74.9608 44.0885 92.1884C42.2096 98.8704 42.9956 104.738 39.7497 111.36C37.5244 115.899 34.9011 121.403 29.7992 122.656C24.4448 123.972 17.9005 119.86 12.268 119.712C7.65202 119.592 2.94602 123.147 1.63736 128.054C0.0861799 133.868 0.909776 141.872 2.41641 147.593C3.65973 152.315 5.35544 155.943 7.37386 160.279C9.00225 163.774 10.497 167.712 11.4552 171.489C13.7518 180.544 17.163 187.991 22.2848 195.755C34.424 214.161 52.7917 224.064 73.3966 225.336C83.3263 225.949 92.5661 228.179 102.092 230.782C105.691 231.767 109.482 232.898 113.226 233.38Z" fill="url(#paint0_radial_7_43)"/>
<path d="M79.1608 8.9136C79.047 9.03817 78.9341 9.16272 78.8223 9.29045C74.4568 14.2159 67.3671 18.3908 66.2534 25.6893C65.3883 31.3632 64.036 43.1849 69.9497 46.6938C73.9024 49.0383 77.4423 45.0175 80.7031 45.7437C86.0317 46.9292 84.6469 54.651 90.6546 55.24C103.269 56.4782 104.884 33.8787 108.309 25.4645C110.238 20.7237 112.691 14.1621 110.3 8.88616C108.04 3.90052 100.963 1.56869 96.1713 1.40612C89.1885 1.16967 83.7401 3.90791 79.1608 8.9136Z" fill="url(#paint1_linear_7_43)"/>
<path d="M113.226 233.38C118.555 234.065 123.788 233.438 128.236 229.199C137.94 219.95 129.197 205.351 126.049 195.128C121.851 181.501 112.285 171.561 103.819 160.741C96.7267 151.675 91.1515 142.942 89.7201 130.953C88.3441 119.429 89.6904 107.517 92.1127 96.2524C92.8264 92.9326 102.684 59.398 98.6203 58.3192C98.0284 53.912 102.605 48.3437 104.005 44.1582C105.422 39.9252 107.8 36.2507 109.325 32.0187C112.317 23.7206 113.102 14.0544 108.569 6.55432C103.133 -2.43735 88.4105 -0.0284481 80.8139 4.60039C67.7551 12.5576 64.0538 26.1591 59.3231 40.0266C53.4807 57.1485 48.9321 74.9608 44.0885 92.1884C42.2096 98.8704 42.9956 104.738 39.7497 111.36C37.5244 115.899 34.9011 121.403 29.7992 122.656C24.4448 123.972 17.9005 119.86 12.268 119.712C7.65202 119.592 2.94602 123.147 1.63736 128.054C0.0861799 133.868 0.909776 141.872 2.41641 147.593C3.65973 152.315 5.35544 155.943 7.37386 160.279C9.00225 163.774 10.497 167.712 11.4552 171.489C13.7518 180.544 17.163 187.991 22.2848 195.755C34.424 214.161 52.7917 224.064 73.3966 225.336C83.3263 225.949 92.5661 228.179 102.092 230.782C105.691 231.767 109.482 232.898 113.226 233.38Z" stroke="#0060B6" stroke-width="0.5"/>
<path d="M79.1608 8.9136C79.047 9.03817 78.9341 9.16272 78.8223 9.29045C74.4568 14.2159 67.3671 18.3908 66.2534 25.6893C65.3883 31.3632 64.036 43.1849 69.9497 46.6938C73.9024 49.0383 77.4423 45.0175 80.7031 45.7437C86.0317 46.9292 84.6469 54.651 90.6546 55.24C103.269 56.4782 104.884 33.8787 108.309 25.4645C110.238 20.7237 112.691 14.1621 110.3 8.88616C108.04 3.90052 100.963 1.56869 96.1713 1.40612C89.1885 1.16967 83.7401 3.90791 79.1608 8.9136Z" stroke="#0060B6" stroke-width="0.5"/>
</g>
<defs>
<radialGradient id="paint0_radial_7_43" cx="0" cy="0" r="1" gradientUnits="userSpaceOnUse" gradientTransform="translate(81.5859 166.608) scale(77.8821 83.0513)">
<stop stop-color="#95EDFC"/>
<stop offset="1" stop-color="#0060B6"/>
</radialGradient>
<linearGradient id="paint1_linear_7_43" x1="81.0131" y1="43.2205" x2="98.643" y2="4.989" gradientUnits="userSpaceOnUse">
<stop stop-color="#00A0C6"/>
<stop offset="1" stop-color="#0A0A9E"/>
</linearGradient>
</defs>
</svg>