<svg width="66" height="109" viewBox="0 0 66 109" fill="none" xmlns="http://www.w3.org/2000/svg">
<g id="Right Atrium">
<path d="M39.3175 20.6319C46.0587 19.0739 51.1795 21.6432 57.5743 22.987C57.7683 23.0282 53.7315 13.5499 53.0296 12.6368C50.7123 9.63039 47.312 6.57018 43.9324 6.27039C38.9671 5.82914 25.3677 15.5355 26.5309 23.6151C31.0448 24.3128 35.0391 21.62 39.3175 20.6319Z" fill="url(#paint0_linear_7_49)"/>
<path d="M20.1074 74.1882C18.3404 72.4665 16.6754 70.4218 14.9272 69.1825C10.6864 66.1761 4.77968 66.7514 4.03329 72.7863C3.45914 77.4215 6.27444 82.8336 8.76504 86.411C11.2576 89.9927 13.1761 89.1229 16.5794 87.5786C19.1105 86.4311 21.223 85.4916 23.9809 84.7949C26.2349 84.2259 31.0795 84.531 32.888 83.277C41.8427 77.0637 25.8944 77.6168 23.9828 76.919C22.6019 76.4144 21.3299 75.38 20.1074 74.1882Z" fill="url(#paint1_linear_7_49)"/>
<path d="M36.5 3L46.5 0H48.5L50.5 1.5L53 5L56.5 9.5L59.5 12.5L63 17L66 24V30L64.5 34.5L63 41L61 46.5L59.5 53L58 61V67.5L59.5 78.5L64.5 87H58L55.5 89L54 92L53 96V103.5L52 106.5L50.5 108.5V105.5L48.5 100L46.5 96L43.5 92L40 90L33 88H26.5L19 90L13.5 93.5L9 92L5 88L2.5 83L0.5 77.5V69.5L2.5 61L3.5 54L7 48L12 34.5L13.5 31.5L17.5 26L20.5 20.5L26.5 14L29.5 9.5L36.5 3Z" fill="url(#paint2_linear_7_49)"/>
</g>
<defs>
<linearGradient id="paint0_linear_7_49" x1="33.25" y1="0" x2="33.25" y2="108.5" gradientUnits="userSpaceOnUse">
<stop stop-color="#055DAD"/>
<stop offset="1" stop-color="#52ADDC"/>
</linearGradient>
<linearGradient id="paint1_linear_7_49" x1="33.25" y1="0" x2="33.25" y2="108.5" gradientUnits="userSpaceOnUse">
<stop stop-color="#055DAD"/>
<stop offset="1" stop-color="#52ADDC"/>
</linearGradient>
<linearGradient id="paint2_linear_7_49" x1="33.25" y1="0" x2="33.25" y2="108.5" gradientUnits="userSpaceOnUse">
<stop stop-color="#055DAD"/>
<stop offset="1" stop-color="#52ADDC"/>
</linearGradient>
</defs>
</svg>
