<svg width="57" height="27" viewBox="0 0 57 27" fill="none" xmlns="http://www.w3.org/2000/svg">
<g id="Semilunar Valve">
<path d="M41.5 20L39.5 22.5L41 27L42 26L42.5 24.5L44 23L44.5 22L45 20.5L45.5 19.5V18L44 16.5H44.5L46 17H49.5L52.5 15.5L54 15L55.5 14L56 12.5L57 10.5L53 7V8L52.5 10.5L50.5 13L48.5 14H46.5L43.5 15V16L42.5 17.5L41.5 20Z" fill="#D9D9D9" fill-opacity="0.01"/>
<path d="M17.5 6L17 4.5L15 5L12.5 6H10L8 5.5L6.5 4L5.5 2.5L4.5 0.5L0 2.5L0.5 4L1.5 5.5L2 7L3 8.5L5.5 10L8 11L12 10L15.5 8L16.5 7.5L17.5 6Z" fill="#D9D9D9" fill-opacity="0.01"/>
<path d="M20 8L20.5 5.5H21.5L22.5 7L23 8V10L23.5 11L24.5 12.5L25 13L26.5 14L27 14.5L26 17.5L24 16.5L21 13.5L20 11.5V8Z" fill="#D9D9D9" fill-opacity="0.01"/>
</g>
</svg>
